<svg width="39" height="44" viewBox="0 0 39 44" fill="none" xmlns="http://www.w3.org/2000/svg">
<path d="M20.7188 38.5V30.25H18.2812V38.5H6.09375V41.25H32.9062V38.5H20.7188Z" fill="#FF9961"/>
<path d="M10.9688 23.375C11.6418 23.375 12.1875 22.7594 12.1875 22C12.1875 21.2406 11.6418 20.625 10.9688 20.625C10.2957 20.625 9.75 21.2406 9.75 22C9.75 22.7594 10.2957 23.375 10.9688 23.375Z" fill="#FF9961"/>
<path d="M31.6875 27.5H7.3125C6.66623 27.4993 6.04662 27.2093 5.58964 26.6937C5.13266 26.1782 4.87565 25.4791 4.875 24.75V19.25C4.87565 18.5209 5.13266 17.8218 5.58964 17.3063C6.04662 16.7907 6.66623 16.5007 7.3125 16.5H31.6875C32.3338 16.5007 32.9534 16.7907 33.4104 17.3063C33.8673 17.8218 34.1244 18.5209 34.125 19.25V24.75C34.1244 25.4791 33.8673 26.1782 33.4104 26.6937C32.9534 27.2093 32.3338 27.4993 31.6875 27.5ZM7.3125 19.25V24.75H31.6875V19.25H7.3125Z" fill="#FF9961"/>
<path d="M10.9688 9.625C11.6418 9.625 12.1875 9.00939 12.1875 8.25C12.1875 7.49061 11.6418 6.875 10.9688 6.875C10.2957 6.875 9.75 7.49061 9.75 8.25C9.75 9.00939 10.2957 9.625 10.9688 9.625Z" fill="#FF9961"/>
<path d="M31.6875 13.75H7.3125C6.66623 13.7493 6.04662 13.4593 5.58964 12.9437C5.13266 12.4282 4.87565 11.7291 4.875 11V5.5C4.87565 4.77088 5.13266 4.07183 5.58964 3.55626C6.04662 3.04069 6.66623 2.75073 7.3125 2.75H31.6875C32.3338 2.75073 32.9534 3.04069 33.4104 3.55626C33.8673 4.07183 34.1244 4.77088 34.125 5.5V11C34.1244 11.7291 33.8673 12.4282 33.4104 12.9437C32.9534 13.4593 32.3338 13.7493 31.6875 13.75ZM7.3125 5.5V11H31.6875V5.5H7.3125Z" fill="#FF9961"/>
</svg>
