<svg width="47" height="47" viewBox="0 0 47 47" fill="none" xmlns="http://www.w3.org/2000/svg">
<g clip-path="url(#clip0_46_2)">
<path d="M39.7879 8.79674C36.7917 7.44549 33.58 6.44674 30.2215 5.87882C30.1916 5.87308 30.1606 5.87678 30.1329 5.88941C30.1052 5.90204 30.0821 5.92298 30.0668 5.94932C29.6555 6.67195 29.1973 7.61391 28.8761 8.35807C25.3141 7.82587 21.6927 7.82587 18.1307 8.35807C17.773 7.53334 17.3696 6.72918 16.9224 5.94932C16.9073 5.92266 16.8843 5.90125 16.8567 5.88795C16.8291 5.87465 16.798 5.8701 16.7677 5.87491C13.4111 6.44282 10.1995 7.44157 7.20126 8.79478C7.17547 8.8056 7.1536 8.82405 7.13859 8.84766C1.04426 17.807 -0.626198 26.5451 0.194343 35.1735C0.196626 35.1947 0.203186 35.2151 0.213623 35.2336C0.22406 35.2521 0.238155 35.2683 0.255052 35.2812C3.81215 37.871 7.77963 39.8438 11.9913 41.1171C12.0207 41.1261 12.0521 41.1261 12.0815 41.117C12.1108 41.1079 12.1367 41.0902 12.1558 41.0662C13.0622 39.8541 13.8653 38.5682 14.5568 37.2219C14.5664 37.2035 14.5719 37.1833 14.573 37.1626C14.5741 37.1418 14.5707 37.1211 14.5631 37.1018C14.5555 37.0825 14.5438 37.065 14.5289 37.0506C14.5139 37.0362 14.496 37.0252 14.4765 37.0183C13.2114 36.5419 11.9856 35.967 10.8105 35.2989C10.7894 35.2868 10.7716 35.2697 10.7587 35.2491C10.7458 35.2284 10.7383 35.205 10.7367 35.1807C10.7352 35.1564 10.7396 35.1322 10.7498 35.1101C10.7599 35.088 10.7754 35.0687 10.7948 35.0541C11.0416 34.8719 11.2883 34.682 11.5233 34.492C11.5445 34.4749 11.5699 34.4641 11.5969 34.4606C11.6239 34.4572 11.6513 34.4613 11.6761 34.4724C19.3664 37.9269 27.6952 37.9269 35.2955 34.4724C35.3204 34.4606 35.348 34.456 35.3754 34.4591C35.4027 34.4622 35.4287 34.4729 35.4502 34.4901C35.6852 34.682 35.93 34.8719 36.1787 35.0541C36.1983 35.0684 36.214 35.0874 36.2245 35.1093C36.235 35.1312 36.2398 35.1554 36.2387 35.1796C36.2375 35.2039 36.2303 35.2275 36.2178 35.2483C36.2053 35.2691 36.1878 35.2865 36.167 35.2989C34.9959 35.9725 33.7778 36.5424 32.499 37.0163C32.4794 37.0235 32.4615 37.0347 32.4465 37.0493C32.4316 37.0639 32.4199 37.0815 32.4123 37.101C32.4047 37.1204 32.4014 37.1413 32.4025 37.1621C32.4036 37.183 32.4091 37.2034 32.4187 37.2219C33.1237 38.5673 33.9306 39.8481 34.8177 41.0642C34.8361 41.0892 34.8618 41.1078 34.8913 41.1176C34.9207 41.1274 34.9524 41.1279 34.9822 41.119C39.2011 39.8493 43.1751 37.8756 46.7361 35.2812C46.7535 35.2691 46.768 35.2534 46.7789 35.2351C46.7897 35.2169 46.7964 35.1966 46.7988 35.1755C47.7779 25.1997 45.1577 16.5322 39.8486 8.85157C39.8356 8.82661 39.8141 8.80716 39.7879 8.79674ZM15.7063 29.9193C13.3916 29.9193 11.4822 27.8259 11.4822 25.2585C11.4822 22.6892 13.3543 20.5977 15.7063 20.5977C18.0759 20.5977 19.9676 22.7068 19.9304 25.2585C19.9304 27.8278 18.0583 29.9193 15.7063 29.9193V29.9193ZM31.324 29.9193C29.0073 29.9193 27.0999 27.8259 27.0999 25.2585C27.0999 22.6892 28.9701 20.5977 31.324 20.5977C33.6936 20.5977 35.5853 22.7068 35.5481 25.2585C35.5481 27.8278 33.6956 29.9193 31.324 29.9193V29.9193Z" fill="#FF9961"/>
</g>
<defs>
<clipPath id="clip0_46_2">
<rect width="47" height="47" fill="white"/>
</clipPath>
</defs>
</svg>
