<svg width="47" height="47" viewBox="0 0 47 47" fill="none" xmlns="http://www.w3.org/2000/svg">
<path d="M37.2083 7.8335H9.79167C8.23352 7.8335 6.7392 8.45247 5.63742 9.55424C4.53564 10.656 3.91667 12.1503 3.91667 13.7085V33.2918C3.91667 34.85 4.53564 36.3443 5.63742 37.4461C6.7392 38.5479 8.23352 39.1668 9.79167 39.1668H37.2083C38.7665 39.1668 40.2608 38.5479 41.3626 37.4461C42.4644 36.3443 43.0833 34.85 43.0833 33.2918V13.7085C43.0833 12.1503 42.4644 10.656 41.3626 9.55424C40.2608 8.45247 38.7665 7.8335 37.2083 7.8335ZM35.8963 11.7502L23.5 21.0522L11.1038 11.7502H35.8963ZM37.2083 35.2502H9.79167C9.27229 35.2502 8.77418 35.0438 8.40692 34.6766C8.03966 34.3093 7.83334 33.8112 7.83334 33.2918V14.1981L22.325 25.0668C22.664 25.3211 23.0763 25.4585 23.5 25.4585C23.9237 25.4585 24.336 25.3211 24.675 25.0668L39.1667 14.1981V33.2918C39.1667 33.8112 38.9603 34.3093 38.5931 34.6766C38.2258 35.0438 37.7277 35.2502 37.2083 35.2502Z" fill="#FF9961"/>
</svg>
