<svg width="40" height="44" viewBox="0 0 40 44" fill="none" xmlns="http://www.w3.org/2000/svg">
<path d="M8.45328 20.5391C8.21829 21.0665 7.92273 21.5576 7.57402 22C7.92273 22.4424 8.21829 22.9335 8.45328 23.4609C9.25542 25.3 9.25542 27.4656 9.25542 29.5625C9.25542 34.0141 9.53308 35.0625 12.3406 35.0625C12.8315 35.0625 13.3023 35.2798 13.6495 35.6666C13.9966 36.0534 14.1916 36.578 14.1916 37.125C14.1916 37.672 13.9966 38.1966 13.6495 38.5834C13.3023 38.9702 12.8315 39.1875 12.3406 39.1875C9.39425 39.1875 7.37348 38.0016 6.35539 35.6641C5.55325 33.825 5.55325 31.6594 5.55325 29.5625C5.55325 25.1109 5.27559 24.0625 2.46812 24.0625C1.97718 24.0625 1.50635 23.8452 1.1592 23.4584C0.812059 23.0716 0.617035 22.547 0.617035 22C0.617035 21.453 0.812059 20.9284 1.1592 20.5416C1.50635 20.1548 1.97718 19.9375 2.46812 19.9375C5.27559 19.9375 5.55325 18.8891 5.55325 14.4375C5.55325 12.3406 5.55325 10.175 6.35539 8.33594C7.37348 5.99844 9.39425 4.8125 12.3406 4.8125C12.8315 4.8125 13.3023 5.0298 13.6495 5.41659C13.9966 5.80339 14.1916 6.32799 14.1916 6.875C14.1916 7.42201 13.9966 7.94661 13.6495 8.33341C13.3023 8.7202 12.8315 8.9375 12.3406 8.9375C9.53308 8.9375 9.25542 9.98594 9.25542 14.4375C9.25542 16.5344 9.25542 18.7 8.45328 20.5391ZM37.0216 19.9375C34.2142 19.9375 33.9365 18.8891 33.9365 14.4375C33.9365 12.3406 33.9365 10.175 33.1344 8.33594C32.1163 5.99844 30.0955 4.8125 27.1492 4.8125C26.6583 4.8125 26.1874 5.0298 25.8403 5.41659C25.4932 5.80339 25.2981 6.32799 25.2981 6.875C25.2981 7.42201 25.4932 7.94661 25.8403 8.33341C26.1874 8.7202 26.6583 8.9375 27.1492 8.9375C29.9567 8.9375 30.2343 9.98594 30.2343 14.4375C30.2343 16.5344 30.2343 18.7 31.0365 20.5391C31.2715 21.0665 31.567 21.5576 31.9157 22C31.567 22.4424 31.2715 22.9335 31.0365 23.4609C30.2343 25.3 30.2343 27.4656 30.2343 29.5625C30.2343 34.0141 29.9567 35.0625 27.1492 35.0625C26.6583 35.0625 26.1874 35.2798 25.8403 35.6666C25.4932 36.0534 25.2981 36.578 25.2981 37.125C25.2981 37.672 25.4932 38.1966 25.8403 38.5834C26.1874 38.9702 26.6583 39.1875 27.1492 39.1875C30.0955 39.1875 32.1163 38.0016 33.1344 35.6641C33.9365 33.825 33.9365 31.6594 33.9365 29.5625C33.9365 25.1109 34.2142 24.0625 37.0216 24.0625C37.5126 24.0625 37.9834 23.8452 38.3306 23.4584C38.6777 23.0716 38.8727 22.547 38.8727 22C38.8727 21.453 38.6777 20.9284 38.3306 20.5416C37.9834 20.1548 37.5126 19.9375 37.0216 19.9375Z" fill="#FFA97A"/>
</svg>
