<svg width="47" height="47" viewBox="0 0 47 47" fill="none" xmlns="http://www.w3.org/2000/svg">
<path d="M23.4816 3.50195C12.131 3.49736 2.9375 12.6862 2.9375 24.0277C2.9375 32.9963 8.68857 40.62 16.6978 43.4198C17.7765 43.6906 17.6112 42.9241 17.6112 42.4009V38.8438C11.3828 39.5735 11.1304 35.4519 10.7127 34.7634C9.86816 33.3222 7.87158 32.955 8.46826 32.2665C9.88652 31.5367 11.3323 32.4501 13.0076 34.924C14.2193 36.7187 16.5831 36.4157 17.781 36.1174C18.0427 35.0388 18.6026 34.0749 19.3737 33.3268C12.9204 32.1701 10.2308 28.232 10.2308 23.5504C10.2308 21.2784 10.9789 19.19 12.4477 17.5056C11.5113 14.7287 12.5349 12.3512 12.6726 11.9978C15.3393 11.7591 18.1115 13.9071 18.3272 14.077C19.8419 13.6685 21.5723 13.4527 23.5092 13.4527C25.4553 13.4527 27.1902 13.6776 28.7186 14.0907C29.2373 13.696 31.8076 11.8509 34.2861 12.0758C34.4192 12.4292 35.4198 14.7517 34.5386 17.4918C36.0257 19.1809 36.783 21.2876 36.783 23.5642C36.783 28.255 34.075 32.1977 27.6033 33.3359C28.1576 33.8811 28.5978 34.5312 28.898 35.2483C29.1983 35.9655 29.3526 36.7352 29.352 37.5127V42.6763C29.3888 43.0894 29.352 43.4979 30.0405 43.4979C38.1691 40.7577 44.0212 33.0789 44.0212 24.0323C44.0212 12.6862 34.8231 3.50195 23.4816 3.50195V3.50195Z" fill="white"/>
</svg>
