<svg width="47" height="47" viewBox="0 0 47 47" fill="none" xmlns="http://www.w3.org/2000/svg">
<path fill-rule="evenodd" clip-rule="evenodd" d="M1.95834 5.55767C1.95834 4.60305 2.33757 3.68752 3.01259 3.0125C3.68761 2.33748 4.60314 1.95826 5.55776 1.95826H41.4383C41.9114 1.95748 42.38 2.05003 42.8173 2.2306C43.2546 2.41116 43.6519 2.6762 43.9866 3.01054C44.3213 3.34488 44.5868 3.74195 44.7678 4.17903C44.9489 4.6161 45.0419 5.08459 45.0417 5.55767V41.4383C45.0422 41.9114 44.9494 42.3801 44.7686 42.8173C44.5879 43.2546 44.3226 43.652 43.9881 43.9867C43.6536 44.3213 43.2564 44.5868 42.8193 44.7678C42.3821 44.9488 41.9135 45.0418 41.4403 45.0416H5.55776C5.08491 45.0416 4.6167 44.9484 4.17987 44.7674C3.74304 44.5864 3.34616 44.3211 3.0119 43.9867C2.67763 43.6522 2.41254 43.2552 2.23177 42.8183C2.051 42.3813 1.95809 41.9131 1.95834 41.4402V5.55767ZM19.0115 18.3848H24.8454V21.3144C25.6875 19.6303 27.8416 18.1145 31.0788 18.1145C37.2847 18.1145 38.7554 21.4691 38.7554 27.6242V39.0256H32.4751V29.0263C32.4751 25.5209 31.633 23.543 29.4945 23.543C26.5276 23.543 25.2938 25.6756 25.2938 29.0263V39.0256H19.0115V18.3848ZM8.24068 38.7573H14.523V18.1145H8.24068V38.7553V38.7573ZM15.4219 11.3818C15.4337 11.9197 15.338 12.4545 15.1404 12.9549C14.9427 13.4553 14.6471 13.9112 14.2708 14.2958C13.8946 14.6804 13.4453 14.986 12.9494 15.1946C12.4535 15.4033 11.9209 15.5107 11.3828 15.5107C10.8448 15.5107 10.3122 15.4033 9.81625 15.1946C9.32031 14.986 8.87104 14.6804 8.49481 14.2958C8.11857 13.9112 7.82295 13.4553 7.62529 12.9549C7.42763 12.4545 7.33192 11.9197 7.34376 11.3818C7.36701 10.3259 7.80277 9.32118 8.5577 8.58268C9.31264 7.84419 10.3267 7.43066 11.3828 7.43066C12.4389 7.43066 13.453 7.84419 14.2079 8.58268C14.9629 9.32118 15.3986 10.3259 15.4219 11.3818V11.3818Z" fill="white"/>
</svg>
