<svg width="47" height="47" viewBox="0 0 47 47" fill="none" xmlns="http://www.w3.org/2000/svg">
<path d="M23.5 25.458C26.7447 25.458 29.375 22.8277 29.375 19.583C29.375 16.3383 26.7447 13.708 23.5 13.708C20.2553 13.708 17.625 16.3383 17.625 19.583C17.625 22.8277 20.2553 25.458 23.5 25.458Z" stroke="#FF9961" stroke-width="5" stroke-linecap="round" stroke-linejoin="round"/>
<path d="M23.5 3.9165C19.3449 3.9165 15.3601 5.56709 12.422 8.50516C9.48393 11.4432 7.83334 15.4281 7.83334 19.5832C7.83334 23.2883 8.62059 25.7128 10.7708 28.3957L23.5 43.0832L36.2292 28.3957C38.3794 25.7128 39.1667 23.2883 39.1667 19.5832C39.1667 15.4281 37.5161 11.4432 34.578 8.50516C31.6399 5.56709 27.6551 3.9165 23.5 3.9165V3.9165Z" stroke="#FF9961" stroke-width="5" stroke-linecap="round" stroke-linejoin="round"/>
</svg>
