<svg width="47" height="47" viewBox="0 0 47 47" fill="none" xmlns="http://www.w3.org/2000/svg">
<path d="M46.3009 9.66818C44.6657 10.3928 42.909 10.8823 41.0623 11.1036C42.9678 9.96348 44.3934 8.16901 45.073 6.05505C43.2828 7.11841 41.3235 7.86689 39.2803 8.26797C37.9063 6.80091 36.0863 5.82853 34.1031 5.50177C32.1198 5.17502 30.0841 5.51219 28.3121 6.46092C26.5401 7.40966 25.1309 8.91689 24.3032 10.7486C23.4756 12.5803 23.2758 14.634 23.735 16.5909C20.1076 16.4088 16.5589 15.4659 13.3195 13.8236C10.08 12.1812 7.22203 9.87608 4.93109 7.05772C4.14775 8.40897 3.69734 9.97564 3.69734 11.6441C3.69646 13.1462 4.06635 14.6252 4.77418 15.95C5.48201 17.2748 6.5059 18.4044 7.755 19.2386C6.30638 19.1925 4.88971 18.801 3.62292 18.0969V18.2144C3.62277 20.321 4.35148 22.3628 5.6854 23.9934C7.01932 25.6239 8.87629 26.7428 10.9412 27.16C9.59737 27.5237 8.18846 27.5773 6.82088 27.3167C7.40348 29.1294 8.53833 30.7145 10.0666 31.8501C11.5948 32.9857 13.4399 33.615 15.3435 33.6499C12.112 36.1868 8.12099 37.5629 4.01263 37.5568C3.28487 37.557 2.55774 37.5145 1.83496 37.4295C6.00519 40.1108 10.8596 41.5338 15.8175 41.5283C32.6004 41.5283 41.7752 27.6281 41.7752 15.5726C41.7752 15.1809 41.7654 14.7853 41.7478 14.3936C43.5324 13.103 45.0728 11.5049 46.297 9.67406L46.3009 9.66818V9.66818Z" fill="white"/>
</svg>
