<svg width="36" height="36" viewBox="0 0 36 36" fill="none" xmlns="http://www.w3.org/2000/svg">
<path d="M32 27.9999H4V21.3199C3.25525 20.9632 2.57843 20.4792 2 19.8899V27.9999C2 28.5303 2.21071 29.039 2.58579 29.4141C2.96086 29.7892 3.46957 29.9999 4 29.9999H32C32.5304 29.9999 33.0391 29.7892 33.4142 29.4141C33.7893 29.039 34 28.5303 34 27.9999V19.8899C33.4258 20.4816 32.7479 20.9629 32 21.3099V27.9999Z" fill="black"/>
<path d="M25 22.3999C25.2652 22.3999 25.5196 22.2946 25.7071 22.107C25.8946 21.9195 26 21.6652 26 21.3999V15.9399H24V17.9999H14V19.9999H24V21.3999C24 21.6652 24.1054 21.9195 24.2929 22.107C24.4804 22.2946 24.7348 22.3999 25 22.3999Z" fill="black"/>
<path d="M33 5.99995H24V4.37995C23.9895 3.73985 23.7257 3.13001 23.2665 2.68394C22.8074 2.23787 22.1901 1.99192 21.55 1.99995H14.45C13.8099 1.99192 13.1926 2.23787 12.7335 2.68394C12.2743 3.13001 12.0105 3.73985 12 4.37995V5.99995H3C2.73478 5.99995 2.48043 6.1053 2.29289 6.29284C2.10536 6.48038 2 6.73473 2 6.99995V14.9999C2 16.326 2.52678 17.5978 3.46447 18.5355C4.40215 19.4732 5.67392 19.9999 7 19.9999H10V21.3999C10 21.6652 10.1054 21.9195 10.2929 22.1071C10.4804 22.2946 10.7348 22.3999 11 22.3999C11.2652 22.3999 11.5196 22.2946 11.7071 22.1071C11.8946 21.9195 12 21.6652 12 21.3999V15.9399H10V17.9999H7C6.20435 17.9999 5.44129 17.6839 4.87868 17.1213C4.31607 16.5587 4 15.7956 4 14.9999V7.99995H32V14.9999C32 15.7956 31.6839 16.5587 31.1213 17.1213C30.5587 17.6839 29.7956 17.9999 29 17.9999H28V19.9999H29C30.3261 19.9999 31.5979 19.4732 32.5355 18.5355C33.4732 17.5978 34 16.326 34 14.9999V6.99995C34 6.73473 33.8946 6.48038 33.7071 6.29284C33.5196 6.1053 33.2652 5.99995 33 5.99995ZM22 5.99995H14V4.42995C14.0052 4.3141 14.0548 4.20471 14.1387 4.1246C14.2225 4.04449 14.334 3.99983 14.45 3.99995H21.56C21.6165 3.99862 21.6727 4.00843 21.7253 4.02882C21.778 4.04921 21.8262 4.07978 21.867 4.11878C21.9079 4.15779 21.9407 4.20446 21.9635 4.25613C21.9863 4.30781 21.9987 4.36347 22 4.41995V5.99995Z" fill="black"/>
</svg>
